<?xml version="1.0" encoding="utf-8"?>
<!-- Generator: Adobe Illustrator 16.0.0, SVG Export Plug-In . SVG Version: 6.00 Build 0)  -->
<!DOCTYPE svg PUBLIC "-//W3C//DTD SVG 1.1//EN" "http://www.w3.org/Graphics/SVG/1.1/DTD/svg11.dtd">
<svg version="1.1" id="Capa_1" xmlns="http://www.w3.org/2000/svg" xmlns:xlink="http://www.w3.org/1999/xlink" x="0px" y="0px"
	 width="52.5px" height="48px" viewBox="0 0 52.5 48" enable-background="new 0 0 52.5 48" xml:space="preserve">
<g enable-background="new    ">
	<path fill="#FFFFFF" d="M9.711,40.846c-2.652-4.329-3.978-8.696-3.978-13.104c0-3.899,0.984-7.634,2.954-11.202
		c1.969-3.568,4.827-6.835,8.57-9.799l4.505,2.749c0.389,0.234,0.663,0.518,0.819,0.849c0.155,0.332,0.234,0.653,0.234,0.965
		c0,0.352-0.079,0.683-0.234,0.995c-0.156,0.312-0.332,0.585-0.526,0.818c-0.507,0.585-1.044,1.269-1.609,2.048
		c-0.566,0.78-1.083,1.629-1.55,2.545c-0.468,0.917-0.858,1.921-1.17,3.013c-0.312,1.092-0.468,2.262-0.468,3.51
		c0,1.326,0.214,2.74,0.644,4.241c0.429,1.502,1.15,3.071,2.165,4.709c0.351,0.547,0.526,1.093,0.526,1.639
		c0,1.248-0.702,2.126-2.106,2.632L9.711,40.846z M29.133,40.846c-2.652-4.329-3.978-8.696-3.978-13.104
		c0-3.899,0.985-7.634,2.955-11.202c1.969-3.568,4.826-6.835,8.57-9.799l4.504,2.749c0.39,0.234,0.663,0.518,0.819,0.849
		c0.155,0.332,0.233,0.653,0.233,0.965c0,0.352-0.078,0.683-0.233,0.995c-0.156,0.312-0.331,0.585-0.526,0.818
		c-0.508,0.585-1.044,1.269-1.609,2.048c-0.565,0.78-1.082,1.629-1.55,2.545c-0.468,0.917-0.858,1.921-1.17,3.013
		c-0.312,1.092-0.468,2.262-0.468,3.51c0,1.326,0.214,2.74,0.644,4.241c0.429,1.502,1.149,3.071,2.164,4.709
		c0.351,0.547,0.526,1.093,0.526,1.639c0,1.248-0.701,2.126-2.105,2.632L29.133,40.846z"/>
</g>
</svg>
