<?xml version="1.0" encoding="utf-8"?>
<!-- Generator: Adobe Illustrator 16.0.0, SVG Export Plug-In . SVG Version: 6.00 Build 0)  -->
<!DOCTYPE svg PUBLIC "-//W3C//DTD SVG 1.1//EN" "http://www.w3.org/Graphics/SVG/1.1/DTD/svg11.dtd">
<svg version="1.1" id="Capa_1" xmlns="http://www.w3.org/2000/svg" xmlns:xlink="http://www.w3.org/1999/xlink" x="0px" y="0px"
	 width="328px" height="54px" viewBox="0 0 328 54" enable-background="new 0 0 328 54" xml:space="preserve">
<g enable-background="new    ">
	<path fill="#FFFFFF" d="M4.62,43V11.87h8.954c1.774,0,3.311,0.176,4.609,0.528c1.298,0.352,2.372,0.868,3.223,1.551
		c0.851,0.682,1.485,1.515,1.903,2.497s0.627,2.098,0.627,3.344c0,0.821-0.143,1.613-0.429,2.376
		c-0.286,0.763-0.7,1.467-1.243,2.112c-0.543,0.646-1.207,1.206-1.991,1.683s-1.683,0.84-2.695,1.089
		c2.449,0.367,4.334,1.181,5.654,2.442s1.98,2.926,1.98,4.994c0,1.319-0.235,2.508-0.704,3.563
		c-0.469,1.057-1.151,1.951-2.046,2.685s-1.995,1.294-3.3,1.683C17.856,42.806,16.375,43,14.718,43H4.62z M6.864,26.434h6.754
		c1.437,0,2.665-0.183,3.685-0.55c1.019-0.366,1.855-0.851,2.508-1.452c0.652-0.601,1.133-1.283,1.441-2.046
		c0.308-0.762,0.462-1.547,0.462-2.354c0-2.098-0.664-3.686-1.991-4.764c-1.328-1.077-3.377-1.616-6.149-1.616h-6.71V26.434z
		 M6.864,28.084v13.112h7.81c2.743,0,4.811-0.591,6.204-1.771c1.393-1.181,2.09-2.841,2.09-4.982c0-0.982-0.187-1.866-0.561-2.651
		c-0.374-0.784-0.913-1.452-1.617-2.002s-1.57-0.972-2.596-1.265c-1.027-0.294-2.193-0.44-3.498-0.44H6.864z"/>
	<path fill="#FFFFFF" d="M35.904,43h-2.266V11.87h2.266V43z"/>
	<path fill="#FFFFFF" d="M64.635,11.87v1.87h-16.39v12.584h13.64v1.826h-13.64V41.13h16.39V43H45.979V11.87H64.635z"/>
	<path fill="#FFFFFF" d="M73.567,11.947c0.117,0.052,0.242,0.165,0.374,0.341L94.093,39.26c-0.044-0.439-0.066-0.865-0.066-1.275
		V11.87h1.98V43h-1.078c-0.337,0-0.609-0.146-0.814-0.44l-20.24-27.016c0.044,0.44,0.066,0.858,0.066,1.254V43h-1.958V11.87h1.1
		C73.288,11.87,73.449,11.896,73.567,11.947z"/>
	<path fill="#FFFFFF" d="M123.903,11.87v1.87h-16.39v12.584h13.64v1.826h-13.64V41.13h16.39V43h-18.656V11.87H123.903z"/>
	<path fill="#FFFFFF" d="M146.32,15.654c-0.132,0.249-0.323,0.374-0.572,0.374c-0.191,0-0.438-0.136-0.74-0.407
		s-0.71-0.572-1.225-0.902c-0.515-0.33-1.159-0.634-1.931-0.913c-0.772-0.278-1.725-0.418-2.858-0.418
		c-1.133,0-2.13,0.162-2.991,0.484c-0.86,0.322-1.582,0.763-2.163,1.32c-0.581,0.558-1.022,1.202-1.324,1.936
		s-0.452,1.504-0.452,2.311c0,1.056,0.224,1.929,0.671,2.617c0.448,0.689,1.04,1.276,1.774,1.761c0.734,0.483,1.568,0.891,2.5,1.221
		s1.891,0.656,2.875,0.979c0.984,0.323,1.942,0.679,2.875,1.067s1.766,0.877,2.5,1.463c0.734,0.587,1.325,1.31,1.773,2.167
		c0.448,0.858,0.672,1.925,0.672,3.201c0,1.306-0.224,2.534-0.671,3.685c-0.447,1.152-1.096,2.153-1.947,3.003
		c-0.851,0.852-1.892,1.522-3.124,2.014s-2.64,0.736-4.224,0.736c-2.053,0-3.821-0.362-5.302-1.089
		c-1.481-0.726-2.78-1.719-3.894-2.98l0.616-0.968c0.176-0.221,0.381-0.33,0.616-0.33c0.132,0,0.301,0.088,0.507,0.264
		s0.455,0.393,0.749,0.649c0.293,0.256,0.646,0.535,1.057,0.836s0.889,0.579,1.432,0.836c0.543,0.257,1.167,0.473,1.873,0.648
		s1.505,0.265,2.401,0.265c1.234,0,2.335-0.188,3.305-0.562s1.788-0.884,2.457-1.529c0.668-0.645,1.178-1.411,1.531-2.299
		c0.352-0.887,0.528-1.837,0.528-2.849c0-1.101-0.224-2.006-0.672-2.717c-0.448-0.712-1.04-1.306-1.774-1.782
		c-0.734-0.477-1.568-0.876-2.5-1.199c-0.932-0.322-1.891-0.638-2.875-0.946c-0.984-0.308-1.942-0.652-2.875-1.033
		c-0.933-0.382-1.766-0.869-2.5-1.464c-0.735-0.594-1.326-1.334-1.774-2.222c-0.448-0.887-0.671-1.998-0.671-3.333
		c0-1.041,0.198-2.046,0.594-3.014c0.397-0.968,0.977-1.822,1.741-2.563c0.764-0.74,1.708-1.334,2.831-1.781
		s2.405-0.672,3.844-0.672c1.616,0,3.066,0.257,4.351,0.771s2.456,1.298,3.512,2.354L146.32,15.654z"/>
</g>
<g enable-background="new    ">
	<path fill="#FFFFFF" d="M158.948,30.57V43h-5.918V11.188h9.702c2.17,0,4.03,0.224,5.577,0.671c1.548,0.447,2.816,1.074,3.807,1.881
		s1.716,1.771,2.178,2.893s0.693,2.358,0.693,3.707c0,1.071-0.158,2.083-0.473,3.036c-0.316,0.953-0.771,1.818-1.365,2.596
		c-0.594,0.778-1.326,1.46-2.199,2.046c-0.873,0.587-1.867,1.057-2.98,1.408c0.748,0.426,1.393,1.034,1.936,1.826L177.868,43h-5.324
		c-0.513,0-0.95-0.103-1.309-0.308c-0.36-0.206-0.664-0.499-0.913-0.881l-6.688-10.186c-0.25-0.381-0.525-0.652-0.825-0.814
		c-0.301-0.161-0.745-0.241-1.331-0.241H158.948z M158.948,26.324h3.696c1.115,0,2.086-0.14,2.915-0.418
		c0.829-0.278,1.511-0.664,2.047-1.155c0.535-0.491,0.935-1.074,1.199-1.749c0.264-0.675,0.396-1.415,0.396-2.222
		c0-1.613-0.532-2.853-1.595-3.719c-1.064-0.864-2.688-1.298-4.874-1.298h-3.784V26.324z"/>
	<path fill="#FFFFFF" d="M209.613,43h-4.575c-0.514,0-0.935-0.128-1.265-0.385s-0.568-0.575-0.715-0.957l-2.377-6.49h-13.178
		l-2.376,6.49c-0.118,0.337-0.349,0.646-0.692,0.924C184.09,42.86,183.668,43,183.17,43h-4.598l12.496-31.812h6.05L209.613,43z
		 M189.021,30.988h10.143l-3.872-10.582c-0.177-0.47-0.37-1.023-0.583-1.661s-0.422-1.331-0.627-2.079
		c-0.205,0.748-0.407,1.444-0.605,2.09c-0.197,0.646-0.393,1.21-0.582,1.694L189.021,30.988z"/>
	<path fill="#FFFFFF" d="M219.558,43h-5.94V11.188h5.94V43z"/>
	<path fill="#FFFFFF" d="M248.576,35.498c0.322,0,0.601,0.125,0.836,0.374l2.332,2.53c-1.291,1.599-2.879,2.823-4.764,3.674
		s-4.146,1.275-6.787,1.275c-2.361,0-4.484-0.402-6.369-1.21c-1.885-0.806-3.494-1.928-4.828-3.365
		c-1.336-1.438-2.358-3.153-3.069-5.148c-0.712-1.994-1.067-4.173-1.067-6.534c0-2.391,0.396-4.579,1.188-6.566
		c0.793-1.987,1.907-3.7,3.345-5.138c1.437-1.437,3.157-2.555,5.159-3.354s4.213-1.199,6.633-1.199c2.361,0,4.426,0.378,6.193,1.133
		c1.768,0.756,3.281,1.757,4.543,3.003l-1.98,2.75c-0.117,0.177-0.268,0.33-0.451,0.462c-0.184,0.133-0.436,0.198-0.759,0.198
		c-0.337,0-0.683-0.132-1.034-0.396c-0.352-0.265-0.799-0.551-1.342-0.858s-1.229-0.594-2.057-0.858
		c-0.829-0.264-1.881-0.396-3.157-0.396c-1.496,0-2.871,0.261-4.125,0.781s-2.332,1.265-3.233,2.232
		c-0.902,0.969-1.606,2.146-2.113,3.531c-0.506,1.386-0.758,2.944-0.758,4.675c0,1.79,0.252,3.381,0.758,4.774
		c0.507,1.394,1.191,2.566,2.058,3.52c0.865,0.954,1.884,1.684,3.058,2.189s2.436,0.759,3.784,0.759
		c0.807,0,1.536-0.044,2.189-0.132c0.652-0.088,1.254-0.228,1.804-0.418c0.551-0.19,1.07-0.437,1.562-0.737
		c0.49-0.3,0.979-0.671,1.463-1.11c0.146-0.133,0.301-0.238,0.461-0.319C248.209,35.538,248.385,35.498,248.576,35.498z"/>
	<path fill="#FFFFFF" d="M276.273,11.188v4.708h-14.103v8.821h11.11v4.555h-11.11v8.997h14.103V43h-20.064V11.188H276.273z"/>
	<path fill="#FFFFFF" d="M298.449,16.974c-0.162,0.323-0.35,0.551-0.562,0.683c-0.213,0.132-0.466,0.197-0.759,0.197
		c-0.294,0-0.624-0.113-0.99-0.341c-0.367-0.227-0.8-0.479-1.299-0.759c-0.498-0.278-1.081-0.531-1.748-0.759
		c-0.668-0.228-1.456-0.341-2.365-0.341c-0.822,0-1.537,0.099-2.145,0.297c-0.609,0.198-1.123,0.473-1.541,0.825
		c-0.418,0.352-0.729,0.773-0.935,1.265c-0.206,0.491-0.308,1.03-0.308,1.617c0,0.748,0.209,1.371,0.627,1.87
		c0.418,0.498,0.971,0.924,1.66,1.275c0.689,0.353,1.475,0.668,2.354,0.946s1.778,0.576,2.695,0.891
		c0.916,0.316,1.815,0.683,2.694,1.101c0.881,0.418,1.665,0.945,2.354,1.584c0.688,0.638,1.243,1.419,1.661,2.343
		s0.627,2.046,0.627,3.366c0,1.438-0.246,2.783-0.737,4.037s-1.21,2.347-2.155,3.277c-0.947,0.932-2.102,1.665-3.465,2.2
		c-1.365,0.535-2.927,0.803-4.687,0.803c-1.013,0-2.01-0.099-2.992-0.297c-0.983-0.197-1.925-0.479-2.827-0.847
		c-0.902-0.366-1.746-0.807-2.529-1.32c-0.785-0.513-1.485-1.085-2.102-1.716l1.716-2.838c0.161-0.205,0.355-0.377,0.583-0.517
		s0.48-0.209,0.76-0.209c0.365,0,0.762,0.15,1.188,0.45c0.426,0.301,0.928,0.635,1.507,1.001c0.579,0.367,1.261,0.701,2.046,1.001
		c0.785,0.301,1.727,0.451,2.827,0.451c1.687,0,2.992-0.399,3.916-1.198c0.924-0.8,1.386-1.947,1.386-3.443
		c0-0.836-0.209-1.519-0.627-2.046c-0.418-0.528-0.972-0.972-1.66-1.331c-0.689-0.359-1.475-0.664-2.354-0.913
		s-1.774-0.521-2.685-0.814c-0.909-0.293-1.804-0.645-2.684-1.056c-0.88-0.41-1.664-0.946-2.354-1.606
		c-0.689-0.659-1.244-1.484-1.662-2.475s-0.627-2.211-0.627-3.663c0-1.158,0.231-2.288,0.693-3.388
		c0.463-1.101,1.137-2.075,2.024-2.926s1.976-1.533,3.267-2.046c1.291-0.514,2.765-0.771,4.422-0.771
		c1.877,0,3.608,0.294,5.192,0.88c1.584,0.587,2.933,1.408,4.048,2.464L298.449,16.974z"/>
</g>
</svg>
